<?xml version="1.0" encoding="utf-8"?>
<!-- Generator: Adobe Illustrator 18.1.1, SVG Export Plug-In . SVG Version: 6.00 Build 0)  -->
<svg version="1.1" id="Layer_1" xmlns="http://www.w3.org/2000/svg" xmlns:xlink="http://www.w3.org/1999/xlink" x="0px" y="0px"
	 viewBox="0 0 792 612" enable-background="new 0 0 792 612" xml:space="preserve">
<g id="Layer_2">
</g>
<text transform="matrix(1 0 0 1 94.3779 333.1582)" fill="#FFFFFF" stroke="#000000" stroke-width="2" stroke-miterlimit="10" font-family="'MonotypeCorsiva'" font-size="140.3054">Sous    Chef</text>
<g>
	<path fill="#FFFFFF" stroke="#000000" stroke-miterlimit="10" d="M387.5,274.4c0.1,0.5,0.3,0.8,0.5,0.8h7.4c0.2,0,0.4-0.3,0.5-0.8
		c3.6-1.4,6.1-4.6,6.1-8.8h-20.6C381.4,269.7,383.9,273,387.5,274.4z"/>
	<polygon fill="#FFFFFF" stroke="#000000" stroke-miterlimit="10" points="403.3,259 402,257.9 395.5,264.4 397.9,264.4 	"/>
	<path fill="#FFFFFF" stroke="#000000" stroke-miterlimit="10" d="M360.6,308.8h45.2c0.6,0,1-0.5,1-1c0-0.6-0.5-1-1-1h-45.2
		c-0.6,0-1,0.5-1,1C359.5,308.4,360,308.8,360.6,308.8z"/>
	<path fill="#FFFFFF" stroke="#000000" stroke-miterlimit="10" d="M360.6,304.4h45.2c0.6,0,1-0.5,1-1c0-0.6-0.5-1-1-1h-45.2
		c-0.6,0-1,0.5-1,1C359.5,303.9,360,304.4,360.6,304.4z"/>
	<path fill="#FFFFFF" stroke="#000000" stroke-miterlimit="10" d="M360.6,299.9h45.2c0.6,0,1-0.5,1-1c0-0.6-0.5-1-1-1h-45.2
		c-0.6,0-1,0.5-1,1C359.5,299.4,360,299.9,360.6,299.9z"/>
	<path fill="#FFFFFF" stroke="#000000" stroke-miterlimit="10" d="M360.6,295.4h45.2c0.6,0,1-0.5,1-1c0-0.6-0.5-1-1-1h-45.2
		c-0.6,0-1,0.5-1,1C359.5,295,360,295.4,360.6,295.4z"/>
	<path fill="#FFFFFF" stroke="#000000" stroke-miterlimit="10" d="M360.6,291h45.2c0.6,0,1-0.5,1-1c0-0.6-0.5-1-1-1h-45.2
		c-0.6,0-1,0.5-1,1C359.5,290.5,360,291,360.6,291z"/>
	<path fill="#FFFFFF" stroke="#000000" stroke-miterlimit="10" d="M360.6,286.5h45.2c0.6,0,1-0.5,1-1c0-0.6-0.5-1-1-1h-45.2
		c-0.6,0-1,0.5-1,1C359.5,286.1,360,286.5,360.6,286.5z"/>
	<path fill="#FFFFFF" stroke="#000000" stroke-miterlimit="10" d="M360.6,282.1h45.2c0.6,0,1-0.5,1-1c0-0.6-0.5-1-1-1h-45.2
		c-0.6,0-1,0.5-1,1C359.5,281.6,360,282.1,360.6,282.1z"/>
	<path fill="#FFFFFF" stroke="#000000" stroke-miterlimit="10" d="M437.4,311.9l10.3-15c1.5-2.1,1-4.9-1.1-6.4c-2-1.4-5-0.9-6.4,1.1
		L427,310.1c-3-0.4-6.3-0.6-9.7-0.8c0.5,0,1,0,1.4,0v-51.1c0-5.9-4.4-10.6-9.9-10.6l-33-0.1c0,0-2.5,0.1-3.5,1.2l-23.6,23.6
		c-0.9,0.9-1.2,3.2-1.2,3.2v44.6c-2.3,0.5-4.5,1.3-6.2,2.6c-2.9,2.1-4.5,5-4.5,8c0.1,6,6.4,10.7,14.3,10.7h0.2
		c2.9,0,5.4-0.7,7.3-1.9c1.2,6.1,5.1,9.8,10.5,9.8c0.6,0,1.3-0.1,2-0.2c3-0.5,5.5-2,7.1-4.3c1.4-2.1,2-4.7,1.8-7.6h2.1
		c5.5,6.3,14.4,12.2,28.4,12.7c0.6,0,1.2,0,1.7,0c14.5,0,23.1-6.5,27.7-12.1c5.4-6.5,7.7-14.2,7.7-17.5c0-0.1,0-0.1,0-0.2
		C447.9,315.4,442.4,313.2,437.4,311.9z M443,293.6c0.2-0.3,0.6-0.5,1-0.5c0.2,0,0.4,0,0.7,0.2c0.5,0.4,0.7,1.1,0.3,1.7l-19.3,28.1
		c0,0,0,0,0,0c-0.4-0.1-0.8-0.1-1-0.1c-0.8,0-1.6,0.1-2.3,0.2c-0.2,0-0.4,0-0.6,0.1L443,293.6z M370,257.7v7.7c0,3-2.9,5.4-6.5,5.4
		h-6.5L370,257.7z M351.4,336.2h-0.1c-5,0-9.2-2.6-9.2-5.6c0-1.8,1.5-3.2,2.4-3.8c1.8-1.3,4.3-2,7.1-2c4.4,0,6.9,2,7,5.7
		C358.4,334.1,355.9,336.2,351.4,336.2z M374.1,341.8c-1,1.5-2.6,2-3.7,2.2c-0.4,0.1-0.8,0.1-1.1,0.1c-3.8,0-5.2-3.3-5.7-6.1
		c-0.4-2.6-0.1-5.2,0.8-7.2c0.5-1,1.5-2.7,3.3-3c0.2,0,0.4,0,0.5,0c2.5,0,5.8,3.2,6.6,8.3C375.3,338.5,375.1,340.4,374.1,341.8z
		 M367,322.8c-1.8,0.3-3.4,1.2-4.7,2.5c-1.5-2.9-4.3-4.8-8.1-5.4v-44.5h10c5.9,0,10.6-4.4,10.6-9.9v-11.3h34.2
		c1.9,0,3.4,1.8,3.4,4.1v50.9c0.3,0,0.5,0,0.8,0c-0.8,0-1.5,0-2.3,0c-8.7,0-17,0.7-23.4,2h-26.8c-0.6,0-1,0.5-1,1c0,0.6,0.5,1,1,1
		h19.3c-1.6,0.6-3,1.4-4.1,2.4h-15.2c-0.6,0-1,0.5-1,1c0,0.6,0.5,1,1,1h13.6c-0.3,0.7-0.5,1.4-0.5,2.2c0,0.1,0,0.1,0,0.2h-13.1
		c-0.6,0-1,0.5-1,1c0,0.6,0.5,1,1,1h13.6c0.3,0.9,0.7,2.2,1.3,3.7C373.1,323.5,370.1,322.3,367,322.8z M381.5,319.9
		c3.6-1.7,13.6-3.9,29.2-3.9c4.4,0,8.2,0.2,11.7,0.5l-5.1,7.1l-0.1,0.1c-2.1,0.1-4.2,0.1-6.5,0.1
		C395.2,323.9,385.1,321.6,381.5,319.9z M410.9,342.9c-15.3-0.5-23.1-8.5-27-15c0.8,0.2,1.6,0.4,2.3,0.6c6.6,1.4,15.3,2.2,24.5,2.2
		c9.2,0,18-0.8,24.5-2.2c1-0.2,2.1-0.5,3.3-0.8C435.2,334.5,427.6,343.5,410.9,342.9z M430.2,322.5l3.1-4.5c3.1,0.6,5.4,1.3,6.7,2
		C438.2,320.8,434.9,321.7,430.2,322.5z"/>
</g>
<g id="Layer_1_1_">
	<g id="XMLID_1_">
		<g>
			<path fill="#010101" d="M161.9,195.4c5.5,5.5,7.8,13.4,7.7,18.7c-0.1,5.4-2.1,9.8-5.9,12.8c-1.2,0.9-2.5,1.7-3.9,2.3
				c-0.3,0.1-0.6,0.2-0.9,0.3l9.8,23.2l-0.4,1.1c-2.4,7.2-11.8,13.5-19.8,16.9c-0.2,0.1-0.4,0.2-0.6,0.3
				c-10.3,4.3-19.9,5.2-25.9,2.4L121,273l-12.3-29c-6.5,2.5-13.6,1.2-19.2-3.6c-5.5-4.7-8.5-12.1-7.7-19.2
				c0.7-6.3,4.1-11.7,9.5-14.9c6.7-4.1,15.8-4.6,23.3-1.3c0.3,0.1,0.5,0.2,0.8,0.3c0.2-0.1,0.4-0.1,0.6-0.1c3.5-0.3,6.5-2.8,9.9-5.7
				c4.6-3.9,10.4-8.7,19.6-9.8C153.3,188.6,158.7,192.2,161.9,195.4z M164.2,213.5c0.1-3.8-1.7-9.8-5.8-13.9
				c-3.3-3.3-7.3-4.7-11.9-4.2c-7.8,0.9-12.5,4.9-17.1,8.7c-1.1,0.9-2.1,1.8-3.2,2.6c3.1,0,5.8-0.4,6.7-1c1.3-0.8,2.9-0.2,3.7,1.3
				c0.8,1.5,0.4,3.2-0.8,4c-4,2.4-16.7,2-22.9-0.7c-6-2.6-13.3-2.2-18.7,1.1c-2.9,1.7-6.4,5-7,10.9c-0.6,5,1.5,10,5.4,13.4
				c4.3,3.7,9.9,4.5,14.9,2.2c9.9-4.6,15.4-4.2,21-2.1c1.4,0.5,2.3,2.2,2,3.8c-0.2,0.9-0.8,1.5-1.5,1.8c-0.6,0.2-1.2,0.3-1.8,0
				c-3.8-1.4-7.5-1.8-13.6,0.5l11.3,26.6c4.8,1.6,12.9,0.4,21.3-3.2c8.1-3.5,14.6-8.6,16.7-12.9l-9.1-21.6c-5,0.6-10.2-0.1-14.3-1.3
				c-11.4-3.4-20.6-3-23,1.1c-0.8,1.3-2.4,1.6-3.7,0.6c-1.3-1-1.7-2.8-0.9-4.1c3.7-6.3,14.4-7.6,28.6-3.3c6.4,1.9,15,2.1,20-1.8
				C162.8,220.1,164.1,217.3,164.2,213.5z"/>
			<path fill="#FFFFFF" d="M158.4,199.6c4.1,4.1,5.8,10.1,5.8,13.9c-0.1,3.8-1.3,6.5-3.9,8.5c-4.9,3.9-13.6,3.7-20,1.8
				c-14.2-4.3-24.9-3-28.6,3.3c-0.8,1.3-0.4,3.2,0.9,4.1c1.3,1,2.9,0.7,3.7-0.6c2.4-4.1,11.6-4.5,23-1.1c4.1,1.2,9.3,1.9,14.3,1.3
				l9.1,21.6c-2.1,4.3-8.6,9.4-16.7,12.9c-8.4,3.7-16.5,4.8-21.3,3.2l-11.3-26.6c6.1-2.3,9.8-1.9,13.6-0.5c0.6,0.2,1.3,0.2,1.8,0
				c0.7-0.3,1.2-0.9,1.5-1.8c0.4-1.5-0.5-3.2-2-3.8c-5.6-2.1-11.1-2.5-21,2.1c-5,2.3-10.5,1.5-14.9-2.2c-4-3.4-6-8.4-5.4-13.4
				c0.7-5.9,4.2-9.2,7-10.9c5.4-3.3,12.8-3.7,18.7-1.1c6.2,2.7,18.8,3.1,22.9,0.7c1.3-0.8,1.6-2.5,0.8-4c-0.8-1.4-2.5-2-3.7-1.3
				c-0.9,0.6-3.6,0.9-6.7,1c1.1-0.8,2.1-1.7,3.2-2.6c4.6-3.8,9.3-7.8,17.1-8.7C151.1,194.9,155.1,196.3,158.4,199.6z M154.5,237.6
				c-0.4-1-1.5-1.5-2.4-1.2c-0.9,0.4-1.3,1.5-0.8,2.5l5.7,13.5c0.4,1,1.5,1.5,2.4,1.2c0.9-0.4,1.3-1.5,0.8-2.5L154.5,237.6z
				 M149,242.1c-0.4-1-1.5-1.5-2.4-1.2c-0.9,0.4-1.3,1.5-0.8,2.5l5.7,13.5c0.4,1,1.5,1.5,2.4,1.2c0.9-0.4,1.3-1.5,0.8-2.5L149,242.1
				z M143.3,245.9c-0.4-1-1.5-1.5-2.4-1.2c-0.9,0.4-1.3,1.5-0.8,2.5l5.7,13.5c0.4,1,1.5,1.5,2.4,1.2c0.9-0.4,1.3-1.5,0.8-2.5
				L143.3,245.9z M137,248.6c-0.4-1-1.5-1.5-2.4-1.2c-0.9,0.4-1.3,1.5-0.8,2.5l5.7,13.5c0.4,1,1.5,1.5,2.4,1.2
				c0.9-0.4,1.3-1.5,0.8-2.5L137,248.6z M130.3,250c-0.4-1-1.5-1.5-2.4-1.2c-0.9,0.4-1.3,1.5-0.8,2.5l5.7,13.5
				c0.4,1,1.5,1.5,2.4,1.2c0.9-0.4,1.3-1.5,0.8-2.5L130.3,250z M123.2,250.8c-0.4-1-1.5-1.5-2.4-1.2s-1.3,1.5-0.8,2.5l5.7,13.5
				c0.4,1,1.5,1.5,2.4,1.2c0.9-0.4,1.3-1.5,0.8-2.5L123.2,250.8z"/>
			<path fill="#010101" d="M152.1,236.4c0.9-0.4,2,0.1,2.4,1.2l5.7,13.5c0.4,1,0.1,2.2-0.8,2.5c-0.9,0.4-2-0.1-2.4-1.2l-5.7-13.5
				C150.8,237.9,151.2,236.8,152.1,236.4z"/>
			<path fill="#010101" d="M146.6,240.9c0.9-0.4,2,0.1,2.4,1.2l5.7,13.5c0.4,1,0.1,2.1-0.8,2.5c-0.9,0.4-2-0.1-2.4-1.2l-5.7-13.5
				C145.3,242.4,145.7,241.3,146.6,240.9z"/>
			<path fill="#010101" d="M140.9,244.8c0.9-0.4,2,0.1,2.4,1.2l5.7,13.5c0.4,1,0.1,2.1-0.8,2.5c-0.9,0.4-2-0.1-2.4-1.2l-5.7-13.5
				C139.6,246.3,140,245.1,140.9,244.8z"/>
			<path fill="#010101" d="M134.6,247.4c0.9-0.4,2,0.1,2.4,1.2l5.7,13.5c0.4,1,0.1,2.2-0.8,2.5c-0.9,0.4-2-0.1-2.4-1.2l-5.7-13.5
				C133.4,248.9,133.7,247.8,134.6,247.4z"/>
			<path fill="#010101" d="M127.9,248.8c0.9-0.4,2,0.1,2.4,1.2l5.7,13.5c0.4,1,0.1,2.1-0.8,2.5c-0.9,0.4-2-0.1-2.4-1.2l-5.7-13.5
				C126.6,250.4,127,249.2,127.9,248.8z"/>
			<path fill="#010101" d="M120.8,249.6c0.9-0.4,2,0.1,2.4,1.2l5.7,13.5c0.4,1,0.1,2.1-0.8,2.5c-0.9,0.4-2-0.1-2.4-1.2l-5.7-13.5
				C119.6,251.2,119.9,250,120.8,249.6z"/>
		</g>
		<g>
		</g>
	</g>
</g>
</svg>
